<svg width="520" height="464" viewBox="0 0 520 464" fill="none" xmlns="http://www.w3.org/2000/svg">
<path d="M40 0.5H480C501.815 0.5 519.5 18.1848 519.5 40V424C519.5 445.815 501.815 463.5 480 463.5H40C18.1848 463.5 0.5 445.815 0.5 424V40C0.5 18.1848 18.1848 0.5 40 0.5Z" fill="white" stroke="#B4B4B4"/>
<path d="M72 184.5H447C468.815 184.5 486.5 202.185 486.5 224V396C486.5 417.815 468.815 435.5 447 435.5H72C50.1848 435.5 32.5 417.815 32.5 396V224C32.5 202.185 50.1848 184.5 72 184.5Z" fill="#F2F2F2" stroke="#B4B4B4"/>
<path d="M34.5609 51V37H36.5609V51H34.5609ZM53.1323 40.3C53.9857 40.3 54.739 40.4667 55.3923 40.8C56.0457 41.1333 56.5523 41.64 56.9123 42.32C57.2857 43 57.4723 43.86 57.4723 44.9V51H55.5523V45.12C55.5523 44.0933 55.3123 43.32 54.8323 42.8C54.3523 42.28 53.679 42.02 52.8123 42.02C52.1723 42.02 51.6123 42.1533 51.1323 42.42C50.6523 42.6867 50.279 43.08 50.0123 43.6C49.759 44.12 49.6323 44.7667 49.6323 45.54V51H47.7123V45.12C47.7123 44.0933 47.4723 43.32 46.9923 42.8C46.5257 42.28 45.8523 42.02 44.9723 42.02C44.3457 42.02 43.7923 42.1533 43.3123 42.42C42.8323 42.6867 42.459 43.08 42.1923 43.6C41.9257 44.12 41.7923 44.7667 41.7923 45.54V51H39.8723V40.4H41.7123V43.22L41.4123 42.5C41.7457 41.8067 42.259 41.2667 42.9523 40.88C43.6457 40.4933 44.4523 40.3 45.3723 40.3C46.3857 40.3 47.259 40.5533 47.9923 41.06C48.7257 41.5533 49.2057 42.3067 49.4323 43.32L48.6523 43C48.9723 42.1867 49.5323 41.5333 50.3323 41.04C51.1323 40.5467 52.0657 40.3 53.1323 40.3ZM66.0252 51.12C65.1452 51.12 64.3385 50.92 63.6052 50.52C62.8852 50.1067 62.3052 49.5 61.8652 48.7C61.4385 47.9 61.2252 46.9 61.2252 45.7C61.2252 44.5 61.4318 43.5 61.8452 42.7C62.2718 41.9 62.8452 41.3 63.5652 40.9C64.2985 40.5 65.1185 40.3 66.0252 40.3C67.0652 40.3 67.9852 40.5267 68.7852 40.98C69.5852 41.4333 70.2185 42.0667 70.6852 42.88C71.1518 43.68 71.3852 44.62 71.3852 45.7C71.3852 46.78 71.1518 47.7267 70.6852 48.54C70.2185 49.3533 69.5852 49.9867 68.7852 50.44C67.9852 50.8933 67.0652 51.12 66.0252 51.12ZM60.4052 54.88V40.4H62.2452V43.26L62.1252 45.72L62.3252 48.18V54.88H60.4052ZM65.8652 49.44C66.5452 49.44 67.1518 49.2867 67.6852 48.98C68.2318 48.6733 68.6585 48.24 68.9652 47.68C69.2852 47.1067 69.4452 46.4467 69.4452 45.7C69.4452 44.94 69.2852 44.2867 68.9652 43.74C68.6585 43.18 68.2318 42.7467 67.6852 42.44C67.1518 42.1333 66.5452 41.98 65.8652 41.98C65.1985 41.98 64.5918 42.1333 64.0452 42.44C63.5118 42.7467 63.0852 43.18 62.7652 43.74C62.4585 44.2867 62.3052 44.94 62.3052 45.7C62.3052 46.4467 62.4585 47.1067 62.7652 47.68C63.0852 48.24 63.5118 48.6733 64.0452 48.98C64.5918 49.2867 65.1985 49.44 65.8652 49.44ZM77.978 51.12C76.9113 51.12 75.9646 50.8867 75.138 50.42C74.3113 49.9533 73.658 49.3133 73.178 48.5C72.698 47.6733 72.458 46.74 72.458 45.7C72.458 44.6467 72.698 43.7133 73.178 42.9C73.658 42.0867 74.3113 41.4533 75.138 41C75.9646 40.5333 76.9113 40.3 77.978 40.3C79.0313 40.3 79.9713 40.5333 80.798 41C81.638 41.4533 82.2913 42.0867 82.758 42.9C83.238 43.7 83.478 44.6333 83.478 45.7C83.478 46.7533 83.238 47.6867 82.758 48.5C82.2913 49.3133 81.638 49.9533 80.798 50.42C79.9713 50.8867 79.0313 51.12 77.978 51.12ZM77.978 49.44C78.658 49.44 79.2646 49.2867 79.798 48.98C80.3446 48.6733 80.7713 48.24 81.078 47.68C81.3846 47.1067 81.538 46.4467 81.538 45.7C81.538 44.94 81.3846 44.2867 81.078 43.74C80.7713 43.18 80.3446 42.7467 79.798 42.44C79.2646 42.1333 78.658 41.98 77.978 41.98C77.298 41.98 76.6913 42.1333 76.158 42.44C75.6246 42.7467 75.198 43.18 74.878 43.74C74.558 44.2867 74.398 44.94 74.398 45.7C74.398 46.4467 74.558 47.1067 74.878 47.68C75.198 48.24 75.6246 48.6733 76.158 48.98C76.6913 49.2867 77.298 49.44 77.978 49.44ZM85.5333 51V40.4H87.3733V43.28L87.1933 42.56C87.4866 41.8267 87.9799 41.2667 88.6733 40.88C89.3666 40.4933 90.2199 40.3 91.2333 40.3V42.16C91.1533 42.1467 91.0733 42.14 90.9933 42.14C90.9266 42.14 90.8599 42.14 90.7933 42.14C89.7666 42.14 88.9533 42.4467 88.3533 43.06C87.7533 43.6733 87.4533 44.56 87.4533 45.72V51H85.5333ZM97.0694 51.12C96.0027 51.12 95.176 50.8333 94.5894 50.26C94.0027 49.6867 93.7094 48.8667 93.7094 47.8V38.08H95.6294V47.72C95.6294 48.2933 95.7694 48.7333 96.0494 49.04C96.3427 49.3467 96.756 49.5 97.2894 49.5C97.8894 49.5 98.3894 49.3333 98.7894 49L99.3894 50.38C99.096 50.6333 98.7427 50.82 98.3294 50.94C97.9294 51.06 97.5094 51.12 97.0694 51.12ZM91.9094 41.98V40.4H98.6694V41.98H91.9094ZM106.162 51V37H108.162V49.26H115.742V51H106.162ZM121.74 51.12C120.607 51.12 119.607 50.8867 118.74 50.42C117.887 49.9533 117.22 49.3133 116.74 48.5C116.273 47.6867 116.04 46.7533 116.04 45.7C116.04 44.6467 116.267 43.7133 116.72 42.9C117.187 42.0867 117.82 41.4533 118.62 41C119.433 40.5333 120.347 40.3 121.36 40.3C122.387 40.3 123.293 40.5267 124.08 40.98C124.867 41.4333 125.48 42.0733 125.92 42.9C126.373 43.7133 126.6 44.6667 126.6 45.76C126.6 45.84 126.593 45.9333 126.58 46.04C126.58 46.1467 126.573 46.2467 126.56 46.34H117.54V44.96H125.56L124.78 45.44C124.793 44.76 124.653 44.1533 124.36 43.62C124.067 43.0867 123.66 42.6733 123.14 42.38C122.633 42.0733 122.04 41.92 121.36 41.92C120.693 41.92 120.1 42.0733 119.58 42.38C119.06 42.6733 118.653 43.0933 118.36 43.64C118.067 44.1733 117.92 44.7867 117.92 45.48V45.8C117.92 46.5067 118.08 47.14 118.4 47.7C118.733 48.2467 119.193 48.6733 119.78 48.98C120.367 49.2867 121.04 49.44 121.8 49.44C122.427 49.44 122.993 49.3333 123.5 49.12C124.02 48.9067 124.473 48.5867 124.86 48.16L125.92 49.4C125.44 49.96 124.84 50.3867 124.12 50.68C123.413 50.9733 122.62 51.12 121.74 51.12ZM134.953 51V48.76L134.853 48.34V44.52C134.853 43.7067 134.613 43.08 134.133 42.64C133.666 42.1867 132.96 41.96 132.013 41.96C131.386 41.96 130.773 42.0667 130.173 42.28C129.573 42.48 129.066 42.7533 128.653 43.1L127.853 41.66C128.4 41.22 129.053 40.8867 129.813 40.66C130.586 40.42 131.393 40.3 132.233 40.3C133.686 40.3 134.806 40.6533 135.593 41.36C136.38 42.0667 136.773 43.1467 136.773 44.6V51H134.953ZM131.473 51.12C130.686 51.12 129.993 50.9867 129.393 50.72C128.806 50.4533 128.353 50.0867 128.033 49.62C127.713 49.14 127.553 48.6 127.553 48C127.553 47.4267 127.686 46.9067 127.953 46.44C128.233 45.9733 128.68 45.6 129.293 45.32C129.92 45.04 130.76 44.9 131.813 44.9H135.173V46.28H131.893C130.933 46.28 130.286 46.44 129.953 46.76C129.62 47.08 129.453 47.4667 129.453 47.92C129.453 48.44 129.66 48.86 130.073 49.18C130.486 49.4867 131.06 49.64 131.793 49.64C132.513 49.64 133.14 49.48 133.673 49.16C134.22 48.84 134.613 48.3733 134.853 47.76L135.233 49.08C134.98 49.7067 134.533 50.2067 133.893 50.58C133.253 50.94 132.446 51.12 131.473 51.12ZM144.106 51.12C143.08 51.12 142.16 50.8933 141.346 50.44C140.546 49.9867 139.913 49.3533 139.446 48.54C138.98 47.7267 138.746 46.78 138.746 45.7C138.746 44.62 138.98 43.68 139.446 42.88C139.913 42.0667 140.546 41.4333 141.346 40.98C142.16 40.5267 143.08 40.3 144.106 40.3C145 40.3 145.806 40.5 146.526 40.9C147.246 41.3 147.82 41.9 148.246 42.7C148.686 43.5 148.906 44.5 148.906 45.7C148.906 46.9 148.693 47.9 148.266 48.7C147.853 49.5 147.286 50.1067 146.566 50.52C145.846 50.92 145.026 51.12 144.106 51.12ZM144.266 49.44C144.933 49.44 145.533 49.2867 146.066 48.98C146.613 48.6733 147.04 48.24 147.346 47.68C147.666 47.1067 147.826 46.4467 147.826 45.7C147.826 44.94 147.666 44.2867 147.346 43.74C147.04 43.18 146.613 42.7467 146.066 42.44C145.533 42.1333 144.933 41.98 144.266 41.98C143.586 41.98 142.98 42.1333 142.446 42.44C141.913 42.7467 141.486 43.18 141.166 43.74C140.846 44.2867 140.686 44.94 140.686 45.7C140.686 46.4467 140.846 47.1067 141.166 47.68C141.486 48.24 141.913 48.6733 142.446 48.98C142.98 49.2867 143.586 49.44 144.266 49.44ZM147.886 51V48.14L148.006 45.68L147.806 43.22V36.16H149.726V51H147.886Z" fill="#06002B"/>
<path d="M39.354 171.112C38.6073 171.112 37.912 170.986 37.268 170.734C36.6333 170.482 36.0827 170.132 35.616 169.684C35.1493 169.227 34.7853 168.695 34.524 168.088C34.2627 167.481 34.132 166.819 34.132 166.1C34.132 165.381 34.2627 164.719 34.524 164.112C34.7853 163.505 35.1493 162.978 35.616 162.53C36.0827 162.073 36.6333 161.718 37.268 161.466C37.9027 161.214 38.598 161.088 39.354 161.088C40.1007 161.088 40.7867 161.214 41.412 161.466C42.0467 161.709 42.5973 162.059 43.064 162.516C43.54 162.964 43.904 163.491 44.156 164.098C44.4173 164.705 44.548 165.372 44.548 166.1C44.548 166.828 44.4173 167.495 44.156 168.102C43.904 168.709 43.54 169.241 43.064 169.698C42.5973 170.146 42.0467 170.496 41.412 170.748C40.7867 170.991 40.1007 171.112 39.354 171.112ZM39.354 169.866C39.8953 169.866 40.3947 169.773 40.852 169.586C41.3187 169.399 41.72 169.138 42.056 168.802C42.4013 168.457 42.6673 168.055 42.854 167.598C43.05 167.141 43.148 166.641 43.148 166.1C43.148 165.559 43.05 165.059 42.854 164.602C42.6673 164.145 42.4013 163.748 42.056 163.412C41.72 163.067 41.3187 162.801 40.852 162.614C40.3947 162.427 39.8953 162.334 39.354 162.334C38.8033 162.334 38.2947 162.427 37.828 162.614C37.3707 162.801 36.9693 163.067 36.624 163.412C36.2787 163.748 36.008 164.145 35.812 164.602C35.6253 165.059 35.532 165.559 35.532 166.1C35.532 166.641 35.6253 167.141 35.812 167.598C36.008 168.055 36.2787 168.457 36.624 168.802C36.9693 169.138 37.3707 169.399 37.828 169.586C38.2947 169.773 38.8033 169.866 39.354 169.866ZM46.0718 171V163.58H47.3598V165.596L47.2338 165.092C47.4391 164.579 47.7845 164.187 48.2698 163.916C48.7551 163.645 49.3525 163.51 50.0618 163.51V164.812C50.0058 164.803 49.9498 164.798 49.8938 164.798C49.8471 164.798 49.8005 164.798 49.7538 164.798C49.0351 164.798 48.4658 165.013 48.0458 165.442C47.6258 165.871 47.4158 166.492 47.4158 167.304V171H46.0718Z" fill="#767676"/>
<path d="M34.5549 91V81.2H35.9549V89.782H41.2609V91H34.5549ZM42.2514 91V83.58H43.5954V91H42.2514ZM42.9234 82.152C42.6621 82.152 42.4428 82.068 42.2654 81.9C42.0974 81.732 42.0134 81.5267 42.0134 81.284C42.0134 81.032 42.0974 80.822 42.2654 80.654C42.4428 80.486 42.6621 80.402 42.9234 80.402C43.1848 80.402 43.3994 80.486 43.5674 80.654C43.7448 80.8127 43.8334 81.0133 43.8334 81.256C43.8334 81.508 43.7494 81.7227 43.5814 81.9C43.4134 82.068 43.1941 82.152 42.9234 82.152ZM49.7036 83.51C50.3102 83.51 50.8422 83.6267 51.2996 83.86C51.7662 84.0933 52.1302 84.448 52.3916 84.924C52.6529 85.4 52.7836 86.002 52.7836 86.73V91H51.4396V86.884C51.4396 86.1653 51.2622 85.624 50.9076 85.26C50.5622 84.896 50.0722 84.714 49.4376 84.714C48.9616 84.714 48.5462 84.8073 48.1916 84.994C47.8369 85.1807 47.5616 85.456 47.3656 85.82C47.1789 86.184 47.0856 86.6367 47.0856 87.178V91H45.7416V83.58H47.0296V85.582L46.8196 85.05C47.0622 84.5647 47.4356 84.1867 47.9396 83.916C48.4436 83.6453 49.0316 83.51 49.7036 83.51ZM55.9429 89.208L55.9709 87.486L60.2409 83.58H61.8649L58.5889 86.8L57.8609 87.416L55.9429 89.208ZM54.8509 91V80.612H56.1949V91H54.8509ZM60.5209 91L57.6089 87.388L58.4769 86.31L62.1729 91H60.5209ZM66.061 91.084C65.2677 91.084 64.5677 90.9207 63.961 90.594C63.3637 90.2673 62.897 89.8193 62.561 89.25C62.2344 88.6807 62.071 88.0273 62.071 87.29C62.071 86.5527 62.2297 85.8993 62.547 85.33C62.8737 84.7607 63.317 84.3173 63.877 84C64.4464 83.6733 65.0857 83.51 65.795 83.51C66.5137 83.51 67.1484 83.6687 67.699 83.986C68.2497 84.3033 68.679 84.7513 68.987 85.33C69.3044 85.8993 69.463 86.5667 69.463 87.332C69.463 87.388 69.4584 87.4533 69.449 87.528C69.449 87.6027 69.4444 87.6727 69.435 87.738H63.121V86.772H68.735L68.189 87.108C68.1984 86.632 68.1004 86.2073 67.895 85.834C67.6897 85.4607 67.405 85.1713 67.041 84.966C66.6864 84.7513 66.271 84.644 65.795 84.644C65.3284 84.644 64.913 84.7513 64.549 84.966C64.185 85.1713 63.9004 85.4653 63.695 85.848C63.4897 86.2213 63.387 86.6507 63.387 87.136V87.36C63.387 87.8547 63.499 88.298 63.723 88.69C63.9564 89.0727 64.2784 89.3713 64.689 89.586C65.0997 89.8007 65.571 89.908 66.103 89.908C66.5417 89.908 66.9384 89.8333 67.293 89.684C67.657 89.5347 67.9744 89.3107 68.245 89.012L68.987 89.88C68.651 90.272 68.231 90.5707 67.727 90.776C67.2324 90.9813 66.677 91.084 66.061 91.084ZM73.9753 91.084C73.2566 91.084 72.6126 90.9253 72.0433 90.608C71.4833 90.2907 71.04 89.8473 70.7133 89.278C70.3866 88.7087 70.2233 88.046 70.2233 87.29C70.2233 86.534 70.3866 85.876 70.7133 85.316C71.04 84.7467 71.4833 84.3033 72.0433 83.986C72.6126 83.6687 73.2566 83.51 73.9753 83.51C74.6006 83.51 75.1653 83.65 75.6693 83.93C76.1733 84.21 76.5746 84.63 76.8733 85.19C77.1813 85.75 77.3353 86.45 77.3353 87.29C77.3353 88.13 77.186 88.83 76.8873 89.39C76.598 89.95 76.2013 90.3747 75.6973 90.664C75.1933 90.944 74.6193 91.084 73.9753 91.084ZM74.0873 89.908C74.554 89.908 74.974 89.8007 75.3473 89.586C75.73 89.3713 76.0286 89.068 76.2433 88.676C76.4673 88.2747 76.5793 87.8127 76.5793 87.29C76.5793 86.758 76.4673 86.3007 76.2433 85.918C76.0286 85.526 75.73 85.2227 75.3473 85.008C74.974 84.7933 74.554 84.686 74.0873 84.686C73.6113 84.686 73.1866 84.7933 72.8133 85.008C72.44 85.2227 72.1413 85.526 71.9173 85.918C71.6933 86.3007 71.5813 86.758 71.5813 87.29C71.5813 87.8127 71.6933 88.2747 71.9173 88.676C72.1413 89.068 72.44 89.3713 72.8133 89.586C73.1866 89.8007 73.6113 89.908 74.0873 89.908ZM76.6213 91V88.998L76.7053 87.276L76.5653 85.554V80.612H77.9093V91H76.6213ZM80.2283 91V81.2H81.6283V91H80.2283ZM87.9083 83.51C88.5149 83.51 89.0469 83.6267 89.5043 83.86C89.9709 84.0933 90.3349 84.448 90.5963 84.924C90.8576 85.4 90.9883 86.002 90.9883 86.73V91H89.6443V86.884C89.6443 86.1653 89.4669 85.624 89.1123 85.26C88.7669 84.896 88.2769 84.714 87.6423 84.714C87.1663 84.714 86.7509 84.8073 86.3963 84.994C86.0416 85.1807 85.7663 85.456 85.5703 85.82C85.3836 86.184 85.2903 86.6367 85.2903 87.178V91H83.9463V83.58H85.2343V85.582L85.0243 85.05C85.2669 84.5647 85.6403 84.1867 86.1443 83.916C86.6483 83.6453 87.2363 83.51 87.9083 83.51ZM96.3953 91V80.612H97.7393V91H96.3953ZM99.8855 91V83.58H101.229V91H99.8855ZM100.557 82.152C100.296 82.152 100.077 82.068 99.8995 81.9C99.7315 81.732 99.6475 81.5267 99.6475 81.284C99.6475 81.032 99.7315 80.822 99.8995 80.654C100.077 80.486 100.296 80.402 100.557 80.402C100.819 80.402 101.033 80.486 101.201 80.654C101.379 80.8127 101.467 81.0133 101.467 81.256C101.467 81.508 101.383 81.7227 101.215 81.9C101.047 82.068 100.828 82.152 100.557 82.152ZM107.338 83.51C107.944 83.51 108.476 83.6267 108.934 83.86C109.4 84.0933 109.764 84.448 110.026 84.924C110.287 85.4 110.418 86.002 110.418 86.73V91H109.074V86.884C109.074 86.1653 108.896 85.624 108.542 85.26C108.196 84.896 107.706 84.714 107.072 84.714C106.596 84.714 106.18 84.8073 105.826 84.994C105.471 85.1807 105.196 85.456 105 85.82C104.813 86.184 104.72 86.6367 104.72 87.178V91H103.376V83.58H104.664V85.582L104.454 85.05C104.696 84.5647 105.07 84.1867 105.574 83.916C106.078 83.6453 106.666 83.51 107.338 83.51ZM113.577 89.208L113.605 87.486L117.875 83.58H119.499L116.223 86.8L115.495 87.416L113.577 89.208ZM112.485 91V80.612H113.829V91H112.485ZM118.155 91L115.243 87.388L116.111 86.31L119.807 91H118.155ZM127.21 91.084C126.463 91.084 125.8 90.9207 125.222 90.594C124.643 90.2673 124.186 89.8193 123.85 89.25C123.514 88.6713 123.346 88.018 123.346 87.29C123.346 86.5527 123.514 85.8993 123.85 85.33C124.186 84.7607 124.643 84.3173 125.222 84C125.8 83.6733 126.463 83.51 127.21 83.51C127.947 83.51 128.605 83.6733 129.184 84C129.772 84.3173 130.229 84.7607 130.556 85.33C130.892 85.89 131.06 86.5433 131.06 87.29C131.06 88.0273 130.892 88.6807 130.556 89.25C130.229 89.8193 129.772 90.2673 129.184 90.594C128.605 90.9207 127.947 91.084 127.21 91.084ZM127.21 89.908C127.686 89.908 128.11 89.8007 128.484 89.586C128.866 89.3713 129.165 89.068 129.38 88.676C129.594 88.2747 129.702 87.8127 129.702 87.29C129.702 86.758 129.594 86.3007 129.38 85.918C129.165 85.526 128.866 85.2227 128.484 85.008C128.11 84.7933 127.686 84.686 127.21 84.686C126.734 84.686 126.309 84.7933 125.936 85.008C125.562 85.2227 125.264 85.526 125.04 85.918C124.816 86.3007 124.704 86.758 124.704 87.29C124.704 87.8127 124.816 88.2747 125.04 88.676C125.264 89.068 125.562 89.3713 125.936 89.586C126.309 89.8007 126.734 89.908 127.21 89.908ZM132.498 91V83.58H133.786V85.596L133.66 85.092C133.866 84.5787 134.211 84.1867 134.696 83.916C135.182 83.6453 135.779 83.51 136.488 83.51V84.812C136.432 84.8027 136.376 84.798 136.32 84.798C136.274 84.798 136.227 84.798 136.18 84.798C135.462 84.798 134.892 85.0127 134.472 85.442C134.052 85.8713 133.842 86.492 133.842 87.304V91H132.498ZM144.282 91.084C143.648 91.084 143.088 90.9673 142.602 90.734C142.126 90.5007 141.753 90.146 141.482 89.67C141.221 89.1847 141.09 88.578 141.09 87.85V83.58H142.434V87.696C142.434 88.424 142.607 88.97 142.952 89.334C143.307 89.698 143.802 89.88 144.436 89.88C144.903 89.88 145.309 89.7867 145.654 89.6C146 89.404 146.266 89.124 146.452 88.76C146.639 88.3867 146.732 87.9387 146.732 87.416V83.58H148.076V91H146.802V88.998L147.012 89.53C146.77 90.0247 146.406 90.4073 145.92 90.678C145.435 90.9487 144.889 91.084 144.282 91.084ZM152.343 91.084C151.727 91.084 151.139 91 150.579 90.832C150.028 90.664 149.594 90.4587 149.277 90.216L149.837 89.152C150.154 89.3667 150.546 89.5487 151.013 89.698C151.48 89.8473 151.956 89.922 152.441 89.922C153.066 89.922 153.514 89.8333 153.785 89.656C154.065 89.4787 154.205 89.2313 154.205 88.914C154.205 88.6807 154.121 88.4987 153.953 88.368C153.785 88.2373 153.561 88.1393 153.281 88.074C153.01 88.0087 152.707 87.9527 152.371 87.906C152.035 87.85 151.699 87.7847 151.363 87.71C151.027 87.626 150.719 87.514 150.439 87.374C150.159 87.2247 149.935 87.024 149.767 86.772C149.599 86.5107 149.515 86.1653 149.515 85.736C149.515 85.288 149.641 84.896 149.893 84.56C150.145 84.224 150.5 83.9673 150.957 83.79C151.424 83.6033 151.974 83.51 152.609 83.51C153.094 83.51 153.584 83.5707 154.079 83.692C154.583 83.804 154.994 83.9673 155.311 84.182L154.737 85.246C154.401 85.022 154.051 84.868 153.687 84.784C153.323 84.7 152.959 84.658 152.595 84.658C152.007 84.658 151.568 84.756 151.279 84.952C150.99 85.1387 150.845 85.3813 150.845 85.68C150.845 85.932 150.929 86.128 151.097 86.268C151.274 86.3987 151.498 86.5013 151.769 86.576C152.049 86.6507 152.357 86.716 152.693 86.772C153.029 86.8187 153.365 86.884 153.701 86.968C154.037 87.0427 154.34 87.15 154.611 87.29C154.891 87.43 155.115 87.626 155.283 87.878C155.46 88.13 155.549 88.466 155.549 88.886C155.549 89.334 155.418 89.7213 155.157 90.048C154.896 90.3747 154.527 90.6313 154.051 90.818C153.575 90.9953 153.006 91.084 152.343 91.084ZM160.113 91.084C159.319 91.084 158.619 90.9207 158.013 90.594C157.415 90.2673 156.949 89.8193 156.613 89.25C156.286 88.6807 156.123 88.0273 156.123 87.29C156.123 86.5527 156.281 85.8993 156.599 85.33C156.925 84.7607 157.369 84.3173 157.929 84C158.498 83.6733 159.137 83.51 159.847 83.51C160.565 83.51 161.2 83.6687 161.751 83.986C162.301 84.3033 162.731 84.7513 163.039 85.33C163.356 85.8993 163.515 86.5667 163.515 87.332C163.515 87.388 163.51 87.4533 163.501 87.528C163.501 87.6027 163.496 87.6727 163.487 87.738H157.173V86.772H162.787L162.241 87.108C162.25 86.632 162.152 86.2073 161.947 85.834C161.741 85.4607 161.457 85.1713 161.093 84.966C160.738 84.7513 160.323 84.644 159.847 84.644C159.38 84.644 158.965 84.7513 158.601 84.966C158.237 85.1713 157.952 85.4653 157.747 85.848C157.541 86.2213 157.439 86.6507 157.439 87.136V87.36C157.439 87.8547 157.551 88.298 157.775 88.69C158.008 89.0727 158.33 89.3713 158.741 89.586C159.151 89.8007 159.623 89.908 160.155 89.908C160.593 89.908 160.99 89.8333 161.345 89.684C161.709 89.5347 162.026 89.3107 162.297 89.012L163.039 89.88C162.703 90.272 162.283 90.5707 161.779 90.776C161.284 90.9813 160.729 91.084 160.113 91.084ZM164.961 91V83.58H166.249V85.596L166.123 85.092C166.328 84.5787 166.674 84.1867 167.159 83.916C167.644 83.6453 168.242 83.51 168.951 83.51V84.812C168.895 84.8027 168.839 84.798 168.783 84.798C168.736 84.798 168.69 84.798 168.643 84.798C167.924 84.798 167.355 85.0127 166.935 85.442C166.515 85.8713 166.305 86.492 166.305 87.304V91H164.961ZM174.149 83.51C174.756 83.51 175.288 83.6267 175.745 83.86C176.212 84.0933 176.576 84.448 176.837 84.924C177.099 85.4 177.229 86.002 177.229 86.73V91H175.885V86.884C175.885 86.1653 175.708 85.624 175.353 85.26C175.008 84.896 174.518 84.714 173.883 84.714C173.407 84.714 172.992 84.8073 172.637 84.994C172.283 85.1807 172.007 85.456 171.811 85.82C171.625 86.184 171.531 86.6367 171.531 87.178V91H170.187V83.58H171.475V85.582L171.265 85.05C171.508 84.5647 171.881 84.1867 172.385 83.916C172.889 83.6453 173.477 83.51 174.149 83.51ZM183.903 91V89.432L183.833 89.138V86.464C183.833 85.8947 183.665 85.456 183.329 85.148C183.002 84.8307 182.507 84.672 181.845 84.672C181.406 84.672 180.977 84.7467 180.557 84.896C180.137 85.036 179.782 85.2273 179.493 85.47L178.933 84.462C179.315 84.154 179.773 83.9207 180.305 83.762C180.846 83.594 181.411 83.51 181.999 83.51C183.016 83.51 183.8 83.7573 184.351 84.252C184.901 84.7467 185.177 85.5027 185.177 86.52V91H183.903ZM181.467 91.084C180.916 91.084 180.431 90.9907 180.011 90.804C179.6 90.6173 179.283 90.3607 179.059 90.034C178.835 89.698 178.723 89.32 178.723 88.9C178.723 88.4987 178.816 88.1347 179.003 87.808C179.199 87.4813 179.511 87.22 179.941 87.024C180.379 86.828 180.967 86.73 181.705 86.73H184.057V87.696H181.761C181.089 87.696 180.636 87.808 180.403 88.032C180.169 88.256 180.053 88.5267 180.053 88.844C180.053 89.208 180.197 89.502 180.487 89.726C180.776 89.9407 181.177 90.048 181.691 90.048C182.195 90.048 182.633 89.936 183.007 89.712C183.389 89.488 183.665 89.1613 183.833 88.732L184.099 89.656C183.921 90.0947 183.609 90.4447 183.161 90.706C182.713 90.958 182.148 91.084 181.467 91.084ZM196.526 83.51C197.123 83.51 197.651 83.6267 198.108 83.86C198.565 84.0933 198.92 84.448 199.172 84.924C199.433 85.4 199.564 86.002 199.564 86.73V91H198.22V86.884C198.22 86.1653 198.052 85.624 197.716 85.26C197.38 84.896 196.909 84.714 196.302 84.714C195.854 84.714 195.462 84.8073 195.126 84.994C194.79 85.1807 194.529 85.456 194.342 85.82C194.165 86.184 194.076 86.6367 194.076 87.178V91H192.732V86.884C192.732 86.1653 192.564 85.624 192.228 85.26C191.901 84.896 191.43 84.714 190.814 84.714C190.375 84.714 189.988 84.8073 189.652 84.994C189.316 85.1807 189.055 85.456 188.868 85.82C188.681 86.184 188.588 86.6367 188.588 87.178V91H187.244V83.58H188.532V85.554L188.322 85.05C188.555 84.5647 188.915 84.1867 189.4 83.916C189.885 83.6453 190.45 83.51 191.094 83.51C191.803 83.51 192.415 83.6873 192.928 84.042C193.441 84.3873 193.777 84.9147 193.936 85.624L193.39 85.4C193.614 84.8307 194.006 84.3733 194.566 84.028C195.126 83.6827 195.779 83.51 196.526 83.51ZM204.921 91.084C204.127 91.084 203.427 90.9207 202.821 90.594C202.223 90.2673 201.757 89.8193 201.421 89.25C201.094 88.6807 200.931 88.0273 200.931 87.29C200.931 86.5527 201.089 85.8993 201.407 85.33C201.733 84.7607 202.177 84.3173 202.737 84C203.306 83.6733 203.945 83.51 204.655 83.51C205.373 83.51 206.008 83.6687 206.559 83.986C207.109 84.3033 207.539 84.7513 207.847 85.33C208.164 85.8993 208.323 86.5667 208.323 87.332C208.323 87.388 208.318 87.4533 208.309 87.528C208.309 87.6027 208.304 87.6727 208.295 87.738H201.981V86.772H207.595L207.049 87.108C207.058 86.632 206.96 86.2073 206.755 85.834C206.549 85.4607 206.265 85.1713 205.901 84.966C205.546 84.7513 205.131 84.644 204.655 84.644C204.188 84.644 203.773 84.7513 203.409 84.966C203.045 85.1713 202.76 85.4653 202.555 85.848C202.349 86.2213 202.247 86.6507 202.247 87.136V87.36C202.247 87.8547 202.359 88.298 202.583 88.69C202.816 89.0727 203.138 89.3713 203.549 89.586C203.959 89.8007 204.431 89.908 204.963 89.908C205.401 89.908 205.798 89.8333 206.153 89.684C206.517 89.5347 206.834 89.3107 207.105 89.012L207.847 89.88C207.511 90.272 207.091 90.5707 206.587 90.776C206.092 90.9813 205.537 91.084 204.921 91.084Z" fill="#06002B"/>
<rect x="33" y="104" width="455" height="39" rx="6" fill="#F8FAFB"/>
<rect x="395" y="108" width="89" height="31" rx="6" fill="#6100FF"/>
<path d="M55.3495 121.58C55.8695 121.58 56.3255 121.68 56.7175 121.88C57.1175 122.08 57.4295 122.384 57.6535 122.792C57.8775 123.2 57.9895 123.716 57.9895 124.34V128H56.8375V124.472C56.8375 123.856 56.6855 123.392 56.3815 123.08C56.0855 122.768 55.6655 122.612 55.1215 122.612C54.7135 122.612 54.3575 122.692 54.0535 122.852C53.7495 123.012 53.5135 123.248 53.3455 123.56C53.1855 123.872 53.1055 124.26 53.1055 124.724V128H51.9535V119.096H53.1055V123.356L52.8775 122.9C53.0855 122.484 53.4055 122.16 53.8375 121.928C54.2695 121.696 54.7735 121.58 55.3495 121.58ZM61.9455 128.072C61.3055 128.072 60.8095 127.9 60.4575 127.556C60.1055 127.212 59.9295 126.72 59.9295 126.08V120.248H61.0815V126.032C61.0815 126.376 61.1655 126.64 61.3335 126.824C61.5095 127.008 61.7575 127.1 62.0775 127.1C62.4375 127.1 62.7375 127 62.9775 126.8L63.3375 127.628C63.1615 127.78 62.9495 127.892 62.7015 127.964C62.4615 128.036 62.2095 128.072 61.9455 128.072ZM58.8495 122.588V121.64H62.9055V122.588H58.8495ZM66.4019 128.072C65.7619 128.072 65.2659 127.9 64.9139 127.556C64.5619 127.212 64.3859 126.72 64.3859 126.08V120.248H65.5379V126.032C65.5379 126.376 65.6219 126.64 65.7899 126.824C65.9659 127.008 66.2139 127.1 66.5339 127.1C66.8939 127.1 67.1939 127 67.4339 126.8L67.7939 127.628C67.6179 127.78 67.4059 127.892 67.1579 127.964C66.9179 128.036 66.6659 128.072 66.4019 128.072ZM63.3059 122.588V121.64H67.3619V122.588H63.3059ZM72.1986 128.072C71.6706 128.072 71.1866 127.952 70.7466 127.712C70.3146 127.464 69.9666 127.1 69.7026 126.62C69.4466 126.14 69.3186 125.54 69.3186 124.82C69.3186 124.1 69.4426 123.5 69.6906 123.02C69.9466 122.54 70.2906 122.18 70.7226 121.94C71.1626 121.7 71.6546 121.58 72.1986 121.58C72.8226 121.58 73.3746 121.716 73.8546 121.988C74.3346 122.26 74.7146 122.64 74.9946 123.128C75.2746 123.608 75.4146 124.172 75.4146 124.82C75.4146 125.468 75.2746 126.036 74.9946 126.524C74.7146 127.012 74.3346 127.392 73.8546 127.664C73.3746 127.936 72.8226 128.072 72.1986 128.072ZM68.8266 130.328V121.64H69.9306V123.356L69.8586 124.832L69.9786 126.308V130.328H68.8266ZM72.1026 127.064C72.5106 127.064 72.8746 126.972 73.1946 126.788C73.5226 126.604 73.7786 126.344 73.9626 126.008C74.1546 125.664 74.2506 125.268 74.2506 124.82C74.2506 124.364 74.1546 123.972 73.9626 123.644C73.7786 123.308 73.5226 123.048 73.1946 122.864C72.8746 122.68 72.5106 122.588 72.1026 122.588C71.7026 122.588 71.3386 122.68 71.0106 122.864C70.6906 123.048 70.4346 123.308 70.2426 123.644C70.0586 123.972 69.9666 124.364 69.9666 124.82C69.9666 125.268 70.0586 125.664 70.2426 126.008C70.4346 126.344 70.6906 126.604 71.0106 126.788C71.3386 126.972 71.7026 127.064 72.1026 127.064ZM78.4703 128.072C77.9423 128.072 77.4383 128 76.9583 127.856C76.4863 127.712 76.1143 127.536 75.8423 127.328L76.3223 126.416C76.5943 126.6 76.9303 126.756 77.3303 126.884C77.7303 127.012 78.1383 127.076 78.5543 127.076C79.0903 127.076 79.4743 127 79.7063 126.848C79.9463 126.696 80.0663 126.484 80.0663 126.212C80.0663 126.012 79.9943 125.856 79.8503 125.744C79.7063 125.632 79.5143 125.548 79.2743 125.492C79.0423 125.436 78.7823 125.388 78.4943 125.348C78.2063 125.3 77.9183 125.244 77.6303 125.18C77.3423 125.108 77.0783 125.012 76.8383 124.892C76.5983 124.764 76.4063 124.592 76.2623 124.376C76.1183 124.152 76.0463 123.856 76.0463 123.488C76.0463 123.104 76.1543 122.768 76.3703 122.48C76.5863 122.192 76.8903 121.972 77.2823 121.82C77.6823 121.66 78.1543 121.58 78.6983 121.58C79.1143 121.58 79.5343 121.632 79.9583 121.736C80.3903 121.832 80.7423 121.972 81.0143 122.156L80.5223 123.068C80.2343 122.876 79.9343 122.744 79.6223 122.672C79.3103 122.6 78.9983 122.564 78.6863 122.564C78.1823 122.564 77.8063 122.648 77.5583 122.816C77.3103 122.976 77.1863 123.184 77.1863 123.44C77.1863 123.656 77.2583 123.824 77.4023 123.944C77.5543 124.056 77.7463 124.144 77.9783 124.208C78.2183 124.272 78.4823 124.328 78.7703 124.376C79.0583 124.416 79.3463 124.472 79.6343 124.544C79.9223 124.608 80.1823 124.7 80.4143 124.82C80.6543 124.94 80.8463 125.108 80.9903 125.324C81.1423 125.54 81.2183 125.828 81.2183 126.188C81.2183 126.572 81.1063 126.904 80.8823 127.184C80.6583 127.464 80.3423 127.684 79.9343 127.844C79.5263 127.996 79.0383 128.072 78.4703 128.072ZM82.574 123.224C82.35 123.224 82.158 123.148 81.998 122.996C81.838 122.836 81.758 122.636 81.758 122.396C81.758 122.156 81.838 121.96 81.998 121.808C82.158 121.656 82.35 121.58 82.574 121.58C82.79 121.58 82.974 121.656 83.126 121.808C83.286 121.96 83.366 122.156 83.366 122.396C83.366 122.636 83.286 122.836 83.126 122.996C82.974 123.148 82.79 123.224 82.574 123.224ZM82.574 128.072C82.35 128.072 82.158 127.996 81.998 127.844C81.838 127.684 81.758 127.484 81.758 127.244C81.758 127.004 81.838 126.808 81.998 126.656C82.158 126.504 82.35 126.428 82.574 126.428C82.79 126.428 82.974 126.504 83.126 126.656C83.286 126.808 83.366 127.004 83.366 127.244C83.366 127.484 83.286 127.684 83.126 127.844C82.974 127.996 82.79 128.072 82.574 128.072ZM83.803 129.2L87.763 117.896H88.807L84.847 129.2H83.803ZM86.8531 129.2L90.8131 117.896H91.8571L87.8971 129.2H86.8531ZM93.1206 128L90.7566 121.64H91.8486L93.9486 127.4H93.4326L95.6166 121.64H96.5886L98.7246 127.4H98.2206L100.369 121.64H101.401L99.0246 128H97.9206L95.9166 122.744H96.2526L94.2246 128H93.1206ZM103.46 128L101.096 121.64H102.188L104.288 127.4H103.772L105.956 121.64H106.928L109.064 127.4H108.56L110.708 121.64H111.74L109.364 128H108.26L106.256 122.744H106.592L104.564 128H103.46ZM113.799 128L111.435 121.64H112.527L114.627 127.4H114.111L116.295 121.64H117.267L119.403 127.4H118.899L121.047 121.64H122.079L119.703 128H118.599L116.595 122.744H116.931L114.903 128H113.799ZM122.766 128.072C122.542 128.072 122.35 127.996 122.19 127.844C122.03 127.684 121.95 127.484 121.95 127.244C121.95 127.004 122.03 126.808 122.19 126.656C122.35 126.504 122.542 126.428 122.766 126.428C122.982 126.428 123.166 126.504 123.318 126.656C123.478 126.808 123.558 127.004 123.558 127.244C123.558 127.484 123.478 127.684 123.318 127.844C123.166 127.996 122.982 128.072 122.766 128.072ZM124.848 128V119.096H126V128H124.848ZM127.84 128V121.64H128.992V128H127.84ZM128.416 120.416C128.192 120.416 128.004 120.344 127.852 120.2C127.708 120.056 127.636 119.88 127.636 119.672C127.636 119.456 127.708 119.276 127.852 119.132C128.004 118.988 128.192 118.916 128.416 118.916C128.64 118.916 128.824 118.988 128.968 119.132C129.12 119.268 129.196 119.44 129.196 119.648C129.196 119.864 129.124 120.048 128.98 120.2C128.836 120.344 128.648 120.416 128.416 120.416ZM134.227 121.58C134.747 121.58 135.203 121.68 135.595 121.88C135.995 122.08 136.307 122.384 136.531 122.792C136.755 123.2 136.867 123.716 136.867 124.34V128H135.715V124.472C135.715 123.856 135.563 123.392 135.259 123.08C134.963 122.768 134.543 122.612 133.999 122.612C133.591 122.612 133.235 122.692 132.931 122.852C132.627 123.012 132.391 123.248 132.223 123.56C132.063 123.872 131.983 124.26 131.983 124.724V128H130.831V121.64H131.935V123.356L131.755 122.9C131.963 122.484 132.283 122.16 132.715 121.928C133.147 121.696 133.651 121.58 134.227 121.58ZM139.575 126.464L139.599 124.988L143.259 121.64H144.651L141.843 124.4L141.219 124.928L139.575 126.464ZM138.639 128V119.096H139.791V128H138.639ZM143.499 128L141.003 124.904L141.747 123.98L144.915 128H143.499ZM148.248 128.072C147.568 128.072 146.968 127.932 146.448 127.652C145.936 127.372 145.536 126.988 145.248 126.5C144.968 126.012 144.828 125.452 144.828 124.82C144.828 124.188 144.964 123.628 145.236 123.14C145.516 122.652 145.896 122.272 146.376 122C146.864 121.72 147.412 121.58 148.02 121.58C148.636 121.58 149.18 121.716 149.652 121.988C150.124 122.26 150.492 122.644 150.756 123.14C151.028 123.628 151.164 124.2 151.164 124.856C151.164 124.904 151.16 124.96 151.152 125.024C151.152 125.088 151.148 125.148 151.14 125.204H145.728V124.376H150.54L150.072 124.664C150.08 124.256 149.996 123.892 149.82 123.572C149.644 123.252 149.4 123.004 149.088 122.828C148.784 122.644 148.428 122.552 148.02 122.552C147.62 122.552 147.264 122.644 146.952 122.828C146.64 123.004 146.396 123.256 146.22 123.584C146.044 123.904 145.956 124.272 145.956 124.688V124.88C145.956 125.304 146.052 125.684 146.244 126.02C146.444 126.348 146.72 126.604 147.072 126.788C147.424 126.972 147.828 127.064 148.284 127.064C148.66 127.064 149 127 149.304 126.872C149.616 126.744 149.888 126.552 150.12 126.296L150.756 127.04C150.468 127.376 150.108 127.632 149.676 127.808C149.252 127.984 148.776 128.072 148.248 128.072ZM155.032 128.072C154.416 128.072 153.864 127.936 153.376 127.664C152.896 127.392 152.516 127.012 152.236 126.524C151.956 126.036 151.816 125.468 151.816 124.82C151.816 124.172 151.956 123.608 152.236 123.128C152.516 122.64 152.896 122.26 153.376 121.988C153.864 121.716 154.416 121.58 155.032 121.58C155.568 121.58 156.052 121.7 156.484 121.94C156.916 122.18 157.26 122.54 157.516 123.02C157.78 123.5 157.912 124.1 157.912 124.82C157.912 125.54 157.784 126.14 157.528 126.62C157.28 127.1 156.94 127.464 156.508 127.712C156.076 127.952 155.584 128.072 155.032 128.072ZM155.128 127.064C155.528 127.064 155.888 126.972 156.208 126.788C156.536 126.604 156.792 126.344 156.976 126.008C157.168 125.664 157.264 125.268 157.264 124.82C157.264 124.364 157.168 123.972 156.976 123.644C156.792 123.308 156.536 123.048 156.208 122.864C155.888 122.68 155.528 122.588 155.128 122.588C154.72 122.588 154.356 122.68 154.036 122.864C153.716 123.048 153.46 123.308 153.268 123.644C153.076 123.972 152.98 124.364 152.98 124.82C152.98 125.268 153.076 125.664 153.268 126.008C153.46 126.344 153.716 126.604 154.036 126.788C154.356 126.972 154.72 127.064 155.128 127.064ZM157.3 128V126.284L157.372 124.808L157.252 123.332V119.096H158.404V128H157.3ZM160.223 128V121.64H161.375V128H160.223ZM160.799 120.416C160.575 120.416 160.387 120.344 160.235 120.2C160.091 120.056 160.019 119.88 160.019 119.672C160.019 119.456 160.091 119.276 160.235 119.132C160.387 118.988 160.575 118.916 160.799 118.916C161.023 118.916 161.207 118.988 161.351 119.132C161.503 119.268 161.579 119.44 161.579 119.648C161.579 119.864 161.507 120.048 161.363 120.2C161.219 120.344 161.031 120.416 160.799 120.416ZM166.611 121.58C167.131 121.58 167.587 121.68 167.979 121.88C168.379 122.08 168.691 122.384 168.915 122.792C169.139 123.2 169.251 123.716 169.251 124.34V128H168.099V124.472C168.099 123.856 167.947 123.392 167.643 123.08C167.347 122.768 166.927 122.612 166.383 122.612C165.975 122.612 165.619 122.692 165.315 122.852C165.011 123.012 164.775 123.248 164.607 123.56C164.447 123.872 164.367 124.26 164.367 124.724V128H163.215V121.64H164.319V123.356L164.139 122.9C164.347 122.484 164.667 122.16 165.099 121.928C165.531 121.696 166.035 121.58 166.611 121.58ZM171.299 128.072C171.075 128.072 170.883 127.996 170.723 127.844C170.563 127.684 170.483 127.484 170.483 127.244C170.483 127.004 170.563 126.808 170.723 126.656C170.883 126.504 171.075 126.428 171.299 126.428C171.515 126.428 171.699 126.504 171.851 126.656C172.011 126.808 172.091 127.004 172.091 127.244C172.091 127.484 172.011 127.684 171.851 127.844C171.699 127.996 171.515 128.072 171.299 128.072ZM176.013 128.072C175.365 128.072 174.785 127.932 174.273 127.652C173.769 127.372 173.373 126.988 173.085 126.5C172.797 126.012 172.653 125.452 172.653 124.82C172.653 124.188 172.797 123.628 173.085 123.14C173.373 122.652 173.769 122.272 174.273 122C174.785 121.72 175.365 121.58 176.013 121.58C176.589 121.58 177.101 121.696 177.549 121.928C178.005 122.152 178.357 122.488 178.605 122.936L177.729 123.5C177.521 123.188 177.265 122.96 176.961 122.816C176.665 122.664 176.345 122.588 176.001 122.588C175.585 122.588 175.213 122.68 174.885 122.864C174.557 123.048 174.297 123.308 174.105 123.644C173.913 123.972 173.817 124.364 173.817 124.82C173.817 125.276 173.913 125.672 174.105 126.008C174.297 126.344 174.557 126.604 174.885 126.788C175.213 126.972 175.585 127.064 176.001 127.064C176.345 127.064 176.665 126.992 176.961 126.848C177.265 126.696 177.521 126.464 177.729 126.152L178.605 126.704C178.357 127.144 178.005 127.484 177.549 127.724C177.101 127.956 176.589 128.072 176.013 128.072ZM182.367 128.072C181.727 128.072 181.159 127.932 180.663 127.652C180.167 127.372 179.775 126.988 179.487 126.5C179.199 126.004 179.055 125.444 179.055 124.82C179.055 124.188 179.199 123.628 179.487 123.14C179.775 122.652 180.167 122.272 180.663 122C181.159 121.72 181.727 121.58 182.367 121.58C182.999 121.58 183.563 121.72 184.059 122C184.563 122.272 184.955 122.652 185.235 123.14C185.523 123.62 185.667 124.18 185.667 124.82C185.667 125.452 185.523 126.012 185.235 126.5C184.955 126.988 184.563 127.372 184.059 127.652C183.563 127.932 182.999 128.072 182.367 128.072ZM182.367 127.064C182.775 127.064 183.139 126.972 183.459 126.788C183.787 126.604 184.043 126.344 184.227 126.008C184.411 125.664 184.503 125.268 184.503 124.82C184.503 124.364 184.411 123.972 184.227 123.644C184.043 123.308 183.787 123.048 183.459 122.864C183.139 122.68 182.775 122.588 182.367 122.588C181.959 122.588 181.595 122.68 181.275 122.864C180.955 123.048 180.699 123.308 180.507 123.644C180.315 123.972 180.219 124.364 180.219 124.82C180.219 125.268 180.315 125.664 180.507 126.008C180.699 126.344 180.955 126.604 181.275 126.788C181.595 126.972 181.959 127.064 182.367 127.064ZM194.856 121.58C195.368 121.58 195.82 121.68 196.212 121.88C196.604 122.08 196.908 122.384 197.124 122.792C197.348 123.2 197.46 123.716 197.46 124.34V128H196.308V124.472C196.308 123.856 196.164 123.392 195.876 123.08C195.588 122.768 195.184 122.612 194.664 122.612C194.28 122.612 193.944 122.692 193.656 122.852C193.368 123.012 193.144 123.248 192.984 123.56C192.832 123.872 192.756 124.26 192.756 124.724V128H191.604V124.472C191.604 123.856 191.46 123.392 191.172 123.08C190.892 122.768 190.488 122.612 189.96 122.612C189.584 122.612 189.252 122.692 188.964 122.852C188.676 123.012 188.452 123.248 188.292 123.56C188.132 123.872 188.052 124.26 188.052 124.724V128H186.9V121.64H188.004V123.332L187.824 122.9C188.024 122.484 188.332 122.16 188.748 121.928C189.164 121.696 189.648 121.58 190.2 121.58C190.808 121.58 191.332 121.732 191.772 122.036C192.212 122.332 192.5 122.784 192.636 123.392L192.168 123.2C192.36 122.712 192.696 122.32 193.176 122.024C193.656 121.728 194.216 121.58 194.856 121.58ZM197.792 129.2L201.752 117.896H202.796L198.836 129.2H197.792ZM203.172 128V121.64H204.324V128H203.172ZM203.748 120.416C203.524 120.416 203.336 120.344 203.184 120.2C203.04 120.056 202.968 119.88 202.968 119.672C202.968 119.456 203.04 119.276 203.184 119.132C203.336 118.988 203.524 118.916 203.748 118.916C203.972 118.916 204.156 118.988 204.3 119.132C204.452 119.268 204.528 119.44 204.528 119.648C204.528 119.864 204.456 120.048 204.312 120.2C204.168 120.344 203.98 120.416 203.748 120.416ZM209.56 121.58C210.08 121.58 210.536 121.68 210.928 121.88C211.328 122.08 211.64 122.384 211.864 122.792C212.088 123.2 212.2 123.716 212.2 124.34V128H211.048V124.472C211.048 123.856 210.896 123.392 210.592 123.08C210.296 122.768 209.876 122.612 209.332 122.612C208.924 122.612 208.568 122.692 208.264 122.852C207.96 123.012 207.724 123.248 207.556 123.56C207.396 123.872 207.316 124.26 207.316 124.724V128H206.164V121.64H207.268V123.356L207.088 122.9C207.296 122.484 207.616 122.16 208.048 121.928C208.48 121.696 208.984 121.58 209.56 121.58ZM212.544 129.2L216.504 117.896H217.548L213.588 129.2H212.544ZM219.854 128.072C219.174 128.072 218.574 127.932 218.054 127.652C217.542 127.372 217.142 126.988 216.854 126.5C216.574 126.012 216.434 125.452 216.434 124.82C216.434 124.188 216.57 123.628 216.842 123.14C217.122 122.652 217.502 122.272 217.982 122C218.47 121.72 219.018 121.58 219.626 121.58C220.242 121.58 220.786 121.716 221.258 121.988C221.73 122.26 222.098 122.644 222.362 123.14C222.634 123.628 222.77 124.2 222.77 124.856C222.77 124.904 222.766 124.96 222.758 125.024C222.758 125.088 222.754 125.148 222.746 125.204H217.334V124.376H222.146L221.678 124.664C221.686 124.256 221.602 123.892 221.426 123.572C221.25 123.252 221.006 123.004 220.694 122.828C220.39 122.644 220.034 122.552 219.626 122.552C219.226 122.552 218.87 122.644 218.558 122.828C218.246 123.004 218.002 123.256 217.826 123.584C217.65 123.904 217.562 124.272 217.562 124.688V124.88C217.562 125.304 217.658 125.684 217.85 126.02C218.05 126.348 218.326 126.604 218.678 126.788C219.03 126.972 219.434 127.064 219.89 127.064C220.266 127.064 220.606 127 220.91 126.872C221.222 126.744 221.494 126.552 221.726 126.296L222.362 127.04C222.074 127.376 221.714 127.632 221.282 127.808C220.858 127.984 220.382 128.072 219.854 128.072ZM222.91 128L225.646 124.448L225.634 125.036L223.03 121.64H224.314L226.306 124.256H225.814L227.806 121.64H229.066L226.426 125.06L226.438 124.448L229.198 128H227.89L225.79 125.216L226.258 125.288L224.194 128H222.91ZM233.926 128V126.656L233.866 126.404V124.112C233.866 123.624 233.722 123.248 233.434 122.984C233.154 122.712 232.73 122.576 232.162 122.576C231.786 122.576 231.418 122.64 231.058 122.768C230.698 122.888 230.394 123.052 230.146 123.26L229.666 122.396C229.994 122.132 230.386 121.932 230.842 121.796C231.306 121.652 231.79 121.58 232.294 121.58C233.166 121.58 233.838 121.792 234.31 122.216C234.782 122.64 235.018 123.288 235.018 124.16V128H233.926ZM231.838 128.072C231.366 128.072 230.95 127.992 230.59 127.832C230.238 127.672 229.966 127.452 229.774 127.172C229.582 126.884 229.486 126.56 229.486 126.2C229.486 125.856 229.566 125.544 229.726 125.264C229.894 124.984 230.162 124.76 230.53 124.592C230.906 124.424 231.41 124.34 232.042 124.34H234.058V125.168H232.09C231.514 125.168 231.126 125.264 230.926 125.456C230.726 125.648 230.626 125.88 230.626 126.152C230.626 126.464 230.75 126.716 230.998 126.908C231.246 127.092 231.59 127.184 232.03 127.184C232.462 127.184 232.838 127.088 233.158 126.896C233.486 126.704 233.722 126.424 233.866 126.056L234.094 126.848C233.942 127.224 233.674 127.524 233.29 127.748C232.906 127.964 232.422 128.072 231.838 128.072ZM244.746 121.58C245.258 121.58 245.71 121.68 246.102 121.88C246.494 122.08 246.798 122.384 247.014 122.792C247.238 123.2 247.35 123.716 247.35 124.34V128H246.198V124.472C246.198 123.856 246.054 123.392 245.766 123.08C245.478 122.768 245.074 122.612 244.554 122.612C244.17 122.612 243.834 122.692 243.546 122.852C243.258 123.012 243.034 123.248 242.874 123.56C242.722 123.872 242.646 124.26 242.646 124.724V128H241.494V124.472C241.494 123.856 241.35 123.392 241.062 123.08C240.782 122.768 240.378 122.612 239.85 122.612C239.474 122.612 239.142 122.692 238.854 122.852C238.566 123.012 238.342 123.248 238.182 123.56C238.022 123.872 237.942 124.26 237.942 124.724V128H236.79V121.64H237.894V123.332L237.714 122.9C237.914 122.484 238.222 122.16 238.638 121.928C239.054 121.696 239.538 121.58 240.09 121.58C240.698 121.58 241.222 121.732 241.662 122.036C242.102 122.332 242.39 122.784 242.526 123.392L242.058 123.2C242.25 122.712 242.586 122.32 243.066 122.024C243.546 121.728 244.106 121.58 244.746 121.58ZM252.481 128.072C251.953 128.072 251.469 127.952 251.029 127.712C250.597 127.464 250.249 127.1 249.985 126.62C249.729 126.14 249.601 125.54 249.601 124.82C249.601 124.1 249.725 123.5 249.973 123.02C250.229 122.54 250.573 122.18 251.005 121.94C251.445 121.7 251.937 121.58 252.481 121.58C253.105 121.58 253.657 121.716 254.137 121.988C254.617 122.26 254.997 122.64 255.277 123.128C255.557 123.608 255.697 124.172 255.697 124.82C255.697 125.468 255.557 126.036 255.277 126.524C254.997 127.012 254.617 127.392 254.137 127.664C253.657 127.936 253.105 128.072 252.481 128.072ZM249.109 130.328V121.64H250.213V123.356L250.141 124.832L250.261 126.308V130.328H249.109ZM252.385 127.064C252.793 127.064 253.157 126.972 253.477 126.788C253.805 126.604 254.061 126.344 254.245 126.008C254.437 125.664 254.533 125.268 254.533 124.82C254.533 124.364 254.437 123.972 254.245 123.644C254.061 123.308 253.805 123.048 253.477 122.864C253.157 122.68 252.793 122.588 252.385 122.588C251.985 122.588 251.621 122.68 251.293 122.864C250.973 123.048 250.717 123.308 250.525 123.644C250.341 123.972 250.249 124.364 250.249 124.82C250.249 125.268 250.341 125.664 250.525 126.008C250.717 126.344 250.973 126.604 251.293 126.788C251.621 126.972 251.985 127.064 252.385 127.064ZM256.929 128V119.096H258.081V128H256.929ZM262.753 128.072C262.073 128.072 261.473 127.932 260.953 127.652C260.441 127.372 260.041 126.988 259.753 126.5C259.473 126.012 259.333 125.452 259.333 124.82C259.333 124.188 259.469 123.628 259.741 123.14C260.021 122.652 260.401 122.272 260.881 122C261.369 121.72 261.917 121.58 262.525 121.58C263.141 121.58 263.685 121.716 264.157 121.988C264.629 122.26 264.997 122.644 265.261 123.14C265.533 123.628 265.669 124.2 265.669 124.856C265.669 124.904 265.665 124.96 265.657 125.024C265.657 125.088 265.653 125.148 265.645 125.204H260.233V124.376H265.045L264.577 124.664C264.585 124.256 264.501 123.892 264.325 123.572C264.149 123.252 263.905 123.004 263.593 122.828C263.289 122.644 262.933 122.552 262.525 122.552C262.125 122.552 261.769 122.644 261.457 122.828C261.145 123.004 260.901 123.256 260.725 123.584C260.549 123.904 260.461 124.272 260.461 124.688V124.88C260.461 125.304 260.557 125.684 260.749 126.02C260.949 126.348 261.225 126.604 261.577 126.788C261.929 126.972 262.333 127.064 262.789 127.064C263.165 127.064 263.505 127 263.809 126.872C264.121 126.744 264.393 126.552 264.625 126.296L265.261 127.04C264.973 127.376 264.613 127.632 264.181 127.808C263.757 127.984 263.281 128.072 262.753 128.072ZM269.584 128.072C269.04 128.072 268.56 127.972 268.144 127.772C267.736 127.572 267.416 127.268 267.184 126.86C266.96 126.444 266.848 125.924 266.848 125.3V121.64H268V125.168C268 125.792 268.148 126.26 268.444 126.572C268.748 126.884 269.172 127.04 269.716 127.04C270.116 127.04 270.464 126.96 270.76 126.8C271.056 126.632 271.284 126.392 271.444 126.08C271.604 125.76 271.684 125.376 271.684 124.928V121.64H272.836V128H271.744V126.284L271.924 126.74C271.716 127.164 271.404 127.492 270.988 127.724C270.572 127.956 270.104 128.072 269.584 128.072ZM276.493 128.072C275.965 128.072 275.461 128 274.981 127.856C274.509 127.712 274.137 127.536 273.865 127.328L274.345 126.416C274.617 126.6 274.953 126.756 275.353 126.884C275.753 127.012 276.161 127.076 276.577 127.076C277.113 127.076 277.497 127 277.729 126.848C277.969 126.696 278.089 126.484 278.089 126.212C278.089 126.012 278.017 125.856 277.873 125.744C277.729 125.632 277.537 125.548 277.297 125.492C277.065 125.436 276.805 125.388 276.517 125.348C276.229 125.3 275.941 125.244 275.653 125.18C275.365 125.108 275.101 125.012 274.861 124.892C274.621 124.764 274.429 124.592 274.285 124.376C274.141 124.152 274.069 123.856 274.069 123.488C274.069 123.104 274.177 122.768 274.393 122.48C274.609 122.192 274.913 121.972 275.305 121.82C275.705 121.66 276.177 121.58 276.721 121.58C277.137 121.58 277.557 121.632 277.981 121.736C278.413 121.832 278.765 121.972 279.037 122.156L278.545 123.068C278.257 122.876 277.957 122.744 277.645 122.672C277.333 122.6 277.021 122.564 276.709 122.564C276.205 122.564 275.829 122.648 275.581 122.816C275.333 122.976 275.209 123.184 275.209 123.44C275.209 123.656 275.281 123.824 275.425 123.944C275.577 124.056 275.769 124.144 276.001 124.208C276.241 124.272 276.505 124.328 276.793 124.376C277.081 124.416 277.369 124.472 277.657 124.544C277.945 124.608 278.205 124.7 278.437 124.82C278.677 124.94 278.869 125.108 279.013 125.324C279.165 125.54 279.241 125.828 279.241 126.188C279.241 126.572 279.129 126.904 278.905 127.184C278.681 127.464 278.365 127.684 277.957 127.844C277.549 127.996 277.061 128.072 276.493 128.072ZM283.153 128.072C282.473 128.072 281.873 127.932 281.353 127.652C280.841 127.372 280.441 126.988 280.153 126.5C279.873 126.012 279.733 125.452 279.733 124.82C279.733 124.188 279.869 123.628 280.141 123.14C280.421 122.652 280.801 122.272 281.281 122C281.769 121.72 282.317 121.58 282.925 121.58C283.541 121.58 284.085 121.716 284.557 121.988C285.029 122.26 285.397 122.644 285.661 123.14C285.933 123.628 286.069 124.2 286.069 124.856C286.069 124.904 286.065 124.96 286.057 125.024C286.057 125.088 286.053 125.148 286.045 125.204H280.633V124.376H285.445L284.977 124.664C284.985 124.256 284.901 123.892 284.725 123.572C284.549 123.252 284.305 123.004 283.993 122.828C283.689 122.644 283.333 122.552 282.925 122.552C282.525 122.552 282.169 122.644 281.857 122.828C281.545 123.004 281.301 123.256 281.125 123.584C280.949 123.904 280.861 124.272 280.861 124.688V124.88C280.861 125.304 280.957 125.684 281.149 126.02C281.349 126.348 281.625 126.604 281.977 126.788C282.329 126.972 282.733 127.064 283.189 127.064C283.565 127.064 283.905 127 284.209 126.872C284.521 126.744 284.793 126.552 285.025 126.296L285.661 127.04C285.373 127.376 285.013 127.632 284.581 127.808C284.157 127.984 283.681 128.072 283.153 128.072ZM287.309 128V121.64H288.413V123.368L288.305 122.936C288.481 122.496 288.777 122.16 289.193 121.928C289.609 121.696 290.121 121.58 290.729 121.58V122.696C290.681 122.688 290.633 122.684 290.585 122.684C290.545 122.684 290.505 122.684 290.465 122.684C289.849 122.684 289.361 122.868 289.001 123.236C288.641 123.604 288.461 124.136 288.461 124.832V128H287.309Z" fill="#06002B"/>
<path d="M420.531 128V119.6H421.731V128H420.531ZM431.674 121.58C432.186 121.58 432.638 121.68 433.03 121.88C433.422 122.08 433.726 122.384 433.942 122.792C434.166 123.2 434.278 123.716 434.278 124.34V128H433.126V124.472C433.126 123.856 432.982 123.392 432.694 123.08C432.406 122.768 432.002 122.612 431.482 122.612C431.098 122.612 430.762 122.692 430.474 122.852C430.186 123.012 429.962 123.248 429.802 123.56C429.65 123.872 429.574 124.26 429.574 124.724V128H428.422V124.472C428.422 123.856 428.278 123.392 427.99 123.08C427.71 122.768 427.306 122.612 426.778 122.612C426.402 122.612 426.07 122.692 425.782 122.852C425.494 123.012 425.27 123.248 425.11 123.56C424.95 123.872 424.87 124.26 424.87 124.724V128H423.718V121.64H424.822V123.332L424.642 122.9C424.842 122.484 425.15 122.16 425.566 121.928C425.982 121.696 426.466 121.58 427.018 121.58C427.626 121.58 428.15 121.732 428.59 122.036C429.03 122.332 429.318 122.784 429.454 123.392L428.986 123.2C429.178 122.712 429.514 122.32 429.994 122.024C430.474 121.728 431.034 121.58 431.674 121.58ZM439.41 128.072C438.882 128.072 438.398 127.952 437.958 127.712C437.526 127.464 437.178 127.1 436.914 126.62C436.658 126.14 436.53 125.54 436.53 124.82C436.53 124.1 436.654 123.5 436.902 123.02C437.158 122.54 437.502 122.18 437.934 121.94C438.374 121.7 438.866 121.58 439.41 121.58C440.034 121.58 440.586 121.716 441.066 121.988C441.546 122.26 441.926 122.64 442.206 123.128C442.486 123.608 442.626 124.172 442.626 124.82C442.626 125.468 442.486 126.036 442.206 126.524C441.926 127.012 441.546 127.392 441.066 127.664C440.586 127.936 440.034 128.072 439.41 128.072ZM436.038 130.328V121.64H437.142V123.356L437.07 124.832L437.19 126.308V130.328H436.038ZM439.314 127.064C439.722 127.064 440.086 126.972 440.406 126.788C440.734 126.604 440.99 126.344 441.174 126.008C441.366 125.664 441.462 125.268 441.462 124.82C441.462 124.364 441.366 123.972 441.174 123.644C440.99 123.308 440.734 123.048 440.406 122.864C440.086 122.68 439.722 122.588 439.314 122.588C438.914 122.588 438.55 122.68 438.222 122.864C437.902 123.048 437.646 123.308 437.454 123.644C437.27 123.972 437.178 124.364 437.178 124.82C437.178 125.268 437.27 125.664 437.454 126.008C437.646 126.344 437.902 126.604 438.222 126.788C438.55 126.972 438.914 127.064 439.314 127.064ZM446.581 128.072C445.941 128.072 445.373 127.932 444.877 127.652C444.381 127.372 443.989 126.988 443.701 126.5C443.413 126.004 443.269 125.444 443.269 124.82C443.269 124.188 443.413 123.628 443.701 123.14C443.989 122.652 444.381 122.272 444.877 122C445.373 121.72 445.941 121.58 446.581 121.58C447.213 121.58 447.777 121.72 448.273 122C448.777 122.272 449.169 122.652 449.449 123.14C449.737 123.62 449.881 124.18 449.881 124.82C449.881 125.452 449.737 126.012 449.449 126.5C449.169 126.988 448.777 127.372 448.273 127.652C447.777 127.932 447.213 128.072 446.581 128.072ZM446.581 127.064C446.989 127.064 447.353 126.972 447.673 126.788C448.001 126.604 448.257 126.344 448.441 126.008C448.625 125.664 448.717 125.268 448.717 124.82C448.717 124.364 448.625 123.972 448.441 123.644C448.257 123.308 448.001 123.048 447.673 122.864C447.353 122.68 446.989 122.588 446.581 122.588C446.173 122.588 445.809 122.68 445.489 122.864C445.169 123.048 444.913 123.308 444.721 123.644C444.529 123.972 444.433 124.364 444.433 124.82C444.433 125.268 444.529 125.664 444.721 126.008C444.913 126.344 445.169 126.604 445.489 126.788C445.809 126.972 446.173 127.064 446.581 127.064ZM451.114 128V121.64H452.218V123.368L452.11 122.936C452.286 122.496 452.582 122.16 452.998 121.928C453.414 121.696 453.926 121.58 454.534 121.58V122.696C454.486 122.688 454.438 122.684 454.39 122.684C454.35 122.684 454.31 122.684 454.27 122.684C453.654 122.684 453.166 122.868 452.806 123.236C452.446 123.604 452.266 124.136 452.266 124.832V128H451.114ZM458.036 128.072C457.396 128.072 456.9 127.9 456.548 127.556C456.196 127.212 456.02 126.72 456.02 126.08V120.248H457.172V126.032C457.172 126.376 457.256 126.64 457.424 126.824C457.6 127.008 457.848 127.1 458.168 127.1C458.528 127.1 458.828 127 459.068 126.8L459.428 127.628C459.252 127.78 459.04 127.892 458.792 127.964C458.552 128.036 458.3 128.072 458.036 128.072ZM454.94 122.588V121.64H458.996V122.588H454.94Z" fill="white"/>
<path d="M212 313V317C212 317.53 211.789 318.039 211.414 318.414C211.039 318.789 210.53 319 210 319H196C195.47 319 194.961 318.789 194.586 318.414C194.211 318.039 194 317.53 194 317V313" stroke="black" stroke-width="2" stroke-linecap="round" stroke-linejoin="round"/>
<path d="M208 306L203 301L198 306" stroke="black" stroke-width="2" stroke-linecap="round" stroke-linejoin="round"/>
<path d="M203 301V313" stroke="black" stroke-width="2" stroke-linecap="round" stroke-linejoin="round"/>
<path d="M229.037 315.072C228.405 315.072 227.821 314.968 227.285 314.76C226.749 314.544 226.285 314.244 225.893 313.86C225.501 313.476 225.193 313.024 224.969 312.504C224.753 311.984 224.645 311.416 224.645 310.8C224.645 310.184 224.753 309.616 224.969 309.096C225.193 308.576 225.501 308.124 225.893 307.74C226.293 307.356 226.761 307.06 227.297 306.852C227.833 306.636 228.417 306.528 229.049 306.528C229.657 306.528 230.229 306.632 230.765 306.84C231.301 307.04 231.753 307.344 232.121 307.752L231.557 308.316C231.213 307.964 230.833 307.712 230.417 307.56C230.001 307.4 229.553 307.32 229.073 307.32C228.569 307.32 228.101 307.408 227.669 307.584C227.237 307.752 226.861 307.996 226.541 308.316C226.221 308.628 225.969 308.996 225.785 309.42C225.609 309.836 225.521 310.296 225.521 310.8C225.521 311.304 225.609 311.768 225.785 312.192C225.969 312.608 226.221 312.976 226.541 313.296C226.861 313.608 227.237 313.852 227.669 314.028C228.101 314.196 228.569 314.28 229.073 314.28C229.553 314.28 230.001 314.2 230.417 314.04C230.833 313.88 231.213 313.624 231.557 313.272L232.121 313.836C231.753 314.244 231.301 314.552 230.765 314.76C230.229 314.968 229.653 315.072 229.037 315.072ZM233.474 315V306.096H234.326V315H233.474ZM236.337 315V308.7H237.189V315H236.337ZM236.769 307.308C236.593 307.308 236.445 307.248 236.325 307.128C236.205 307.008 236.145 306.864 236.145 306.696C236.145 306.528 236.205 306.388 236.325 306.276C236.445 306.156 236.593 306.096 236.769 306.096C236.945 306.096 237.093 306.152 237.213 306.264C237.333 306.376 237.393 306.516 237.393 306.684C237.393 306.86 237.333 307.008 237.213 307.128C237.101 307.248 236.953 307.308 236.769 307.308ZM241.816 315.06C241.192 315.06 240.632 314.924 240.136 314.652C239.648 314.372 239.264 313.992 238.984 313.512C238.704 313.024 238.564 312.468 238.564 311.844C238.564 311.212 238.704 310.656 238.984 310.176C239.264 309.696 239.648 309.32 240.136 309.048C240.632 308.776 241.192 308.64 241.816 308.64C242.352 308.64 242.836 308.744 243.268 308.952C243.7 309.16 244.04 309.472 244.288 309.888L243.652 310.32C243.436 310 243.168 309.764 242.848 309.612C242.528 309.46 242.18 309.384 241.804 309.384C241.356 309.384 240.952 309.488 240.592 309.696C240.232 309.896 239.948 310.18 239.74 310.548C239.532 310.916 239.428 311.348 239.428 311.844C239.428 312.34 239.532 312.772 239.74 313.14C239.948 313.508 240.232 313.796 240.592 314.004C240.952 314.204 241.356 314.304 241.804 314.304C242.18 314.304 242.528 314.228 242.848 314.076C243.168 313.924 243.436 313.692 243.652 313.38L244.288 313.812C244.04 314.22 243.7 314.532 243.268 314.748C242.836 314.956 242.352 315.06 241.816 315.06ZM246.18 313.368L246.204 312.276L250.128 308.7H251.172L248.4 311.352L247.92 311.76L246.18 313.368ZM245.508 315V306.096H246.36V315H245.508ZM250.392 315L247.764 311.724L248.316 311.064L251.436 315H250.392ZM257.127 315.06C256.535 315.06 256.079 314.9 255.759 314.58C255.439 314.26 255.279 313.808 255.279 313.224V307.308H256.131V313.176C256.131 313.544 256.223 313.828 256.407 314.028C256.599 314.228 256.871 314.328 257.223 314.328C257.599 314.328 257.911 314.22 258.159 314.004L258.459 314.616C258.291 314.768 258.087 314.88 257.847 314.952C257.615 315.024 257.375 315.06 257.127 315.06ZM254.151 309.408V308.7H258.051V309.408H254.151ZM261.996 315.06C261.388 315.06 260.84 314.924 260.352 314.652C259.872 314.372 259.492 313.992 259.212 313.512C258.932 313.024 258.792 312.468 258.792 311.844C258.792 311.212 258.932 310.656 259.212 310.176C259.492 309.696 259.872 309.32 260.352 309.048C260.832 308.776 261.38 308.64 261.996 308.64C262.62 308.64 263.172 308.776 263.652 309.048C264.14 309.32 264.52 309.696 264.792 310.176C265.072 310.656 265.212 311.212 265.212 311.844C265.212 312.468 265.072 313.024 264.792 313.512C264.52 313.992 264.14 314.372 263.652 314.652C263.164 314.924 262.612 315.06 261.996 315.06ZM261.996 314.304C262.452 314.304 262.856 314.204 263.208 314.004C263.56 313.796 263.836 313.508 264.036 313.14C264.244 312.764 264.348 312.332 264.348 311.844C264.348 311.348 264.244 310.916 264.036 310.548C263.836 310.18 263.56 309.896 263.208 309.696C262.856 309.488 262.456 309.384 262.008 309.384C261.56 309.384 261.16 309.488 260.808 309.696C260.456 309.896 260.176 310.18 259.968 310.548C259.76 310.916 259.656 311.348 259.656 311.844C259.656 312.332 259.76 312.764 259.968 313.14C260.176 313.508 260.456 313.796 260.808 314.004C261.16 314.204 261.556 314.304 261.996 314.304ZM271.976 315.06C271.44 315.06 270.972 314.96 270.572 314.76C270.172 314.56 269.86 314.26 269.636 313.86C269.42 313.46 269.312 312.96 269.312 312.36V308.7H270.164V312.264C270.164 312.936 270.328 313.444 270.656 313.788C270.992 314.124 271.46 314.292 272.06 314.292C272.5 314.292 272.88 314.204 273.2 314.028C273.528 313.844 273.776 313.58 273.944 313.236C274.12 312.892 274.208 312.48 274.208 312V308.7H275.06V315H274.244V313.272L274.376 313.584C274.176 314.048 273.864 314.412 273.44 314.676C273.024 314.932 272.536 315.06 271.976 315.06ZM280.326 315.06C279.782 315.06 279.29 314.936 278.85 314.688C278.41 314.432 278.058 314.068 277.794 313.596C277.538 313.116 277.41 312.532 277.41 311.844C277.41 311.156 277.538 310.576 277.794 310.104C278.05 309.624 278.398 309.26 278.838 309.012C279.278 308.764 279.774 308.64 280.326 308.64C280.926 308.64 281.462 308.776 281.934 309.048C282.414 309.312 282.79 309.688 283.062 310.176C283.334 310.656 283.47 311.212 283.47 311.844C283.47 312.484 283.334 313.044 283.062 313.524C282.79 314.004 282.414 314.38 281.934 314.652C281.462 314.924 280.926 315.06 280.326 315.06ZM277.074 317.328V308.7H277.89V310.596L277.806 311.856L277.926 313.128V317.328H277.074ZM280.266 314.304C280.714 314.304 281.114 314.204 281.466 314.004C281.818 313.796 282.098 313.508 282.306 313.14C282.514 312.764 282.618 312.332 282.618 311.844C282.618 311.356 282.514 310.928 282.306 310.56C282.098 310.192 281.818 309.904 281.466 309.696C281.114 309.488 280.714 309.384 280.266 309.384C279.818 309.384 279.414 309.488 279.054 309.696C278.702 309.904 278.422 310.192 278.214 310.56C278.014 310.928 277.914 311.356 277.914 311.844C277.914 312.332 278.014 312.764 278.214 313.14C278.422 313.508 278.702 313.796 279.054 314.004C279.414 314.204 279.818 314.304 280.266 314.304ZM284.847 315V306.096H285.699V315H284.847ZM290.278 315.06C289.67 315.06 289.122 314.924 288.634 314.652C288.154 314.372 287.774 313.992 287.494 313.512C287.214 313.024 287.074 312.468 287.074 311.844C287.074 311.212 287.214 310.656 287.494 310.176C287.774 309.696 288.154 309.32 288.634 309.048C289.114 308.776 289.662 308.64 290.278 308.64C290.902 308.64 291.454 308.776 291.934 309.048C292.422 309.32 292.802 309.696 293.074 310.176C293.354 310.656 293.494 311.212 293.494 311.844C293.494 312.468 293.354 313.024 293.074 313.512C292.802 313.992 292.422 314.372 291.934 314.652C291.446 314.924 290.894 315.06 290.278 315.06ZM290.278 314.304C290.734 314.304 291.138 314.204 291.49 314.004C291.842 313.796 292.118 313.508 292.318 313.14C292.526 312.764 292.63 312.332 292.63 311.844C292.63 311.348 292.526 310.916 292.318 310.548C292.118 310.18 291.842 309.896 291.49 309.696C291.138 309.488 290.738 309.384 290.29 309.384C289.842 309.384 289.442 309.488 289.09 309.696C288.738 309.896 288.458 310.18 288.25 310.548C288.042 310.916 287.938 311.348 287.938 311.844C287.938 312.332 288.042 312.764 288.25 313.14C288.458 313.508 288.738 313.796 289.09 314.004C289.442 314.204 289.838 314.304 290.278 314.304ZM298.786 315V313.608L298.75 313.38V311.052C298.75 310.516 298.598 310.104 298.294 309.816C297.998 309.528 297.554 309.384 296.962 309.384C296.554 309.384 296.166 309.452 295.798 309.588C295.43 309.724 295.118 309.904 294.862 310.128L294.478 309.492C294.798 309.22 295.182 309.012 295.63 308.868C296.078 308.716 296.55 308.64 297.046 308.64C297.862 308.64 298.49 308.844 298.93 309.252C299.378 309.652 299.602 310.264 299.602 311.088V315H298.786ZM296.614 315.06C296.142 315.06 295.73 314.984 295.378 314.832C295.034 314.672 294.77 314.456 294.586 314.184C294.402 313.904 294.31 313.584 294.31 313.224C294.31 312.896 294.386 312.6 294.538 312.336C294.698 312.064 294.954 311.848 295.306 311.688C295.666 311.52 296.146 311.436 296.746 311.436H298.918V312.072H296.77C296.162 312.072 295.738 312.18 295.498 312.396C295.266 312.612 295.15 312.88 295.15 313.2C295.15 313.56 295.29 313.848 295.57 314.064C295.85 314.28 296.242 314.388 296.746 314.388C297.226 314.388 297.638 314.28 297.982 314.064C298.334 313.84 298.59 313.52 298.75 313.104L298.942 313.692C298.782 314.108 298.502 314.44 298.102 314.688C297.71 314.936 297.214 315.06 296.614 315.06ZM304.064 315.06C303.464 315.06 302.924 314.924 302.444 314.652C301.972 314.38 301.6 314.004 301.328 313.524C301.056 313.036 300.92 312.476 300.92 311.844C300.92 311.204 301.056 310.644 301.328 310.164C301.6 309.684 301.972 309.312 302.444 309.048C302.924 308.776 303.464 308.64 304.064 308.64C304.616 308.64 305.108 308.764 305.54 309.012C305.98 309.26 306.328 309.624 306.584 310.104C306.848 310.576 306.98 311.156 306.98 311.844C306.98 312.524 306.852 313.104 306.596 313.584C306.34 314.064 305.992 314.432 305.552 314.688C305.12 314.936 304.624 315.06 304.064 315.06ZM304.124 314.304C304.572 314.304 304.972 314.204 305.324 314.004C305.684 313.796 305.964 313.508 306.164 313.14C306.372 312.764 306.476 312.332 306.476 311.844C306.476 311.348 306.372 310.916 306.164 310.548C305.964 310.18 305.684 309.896 305.324 309.696C304.972 309.488 304.572 309.384 304.124 309.384C303.684 309.384 303.288 309.488 302.936 309.696C302.584 309.896 302.304 310.18 302.096 310.548C301.888 310.916 301.784 311.348 301.784 311.844C301.784 312.332 301.888 312.764 302.096 313.14C302.304 313.508 302.584 313.796 302.936 314.004C303.288 314.204 303.684 314.304 304.124 314.304ZM306.5 315V313.104L306.584 311.832L306.464 310.56V306.096H307.316V315H306.5ZM312.253 315V307.908C312.253 307.348 312.417 306.896 312.745 306.552C313.073 306.208 313.545 306.036 314.161 306.036C314.401 306.036 314.633 306.068 314.857 306.132C315.081 306.196 315.269 306.296 315.421 306.432L315.133 307.068C315.013 306.964 314.873 306.888 314.713 306.84C314.553 306.784 314.381 306.756 314.197 306.756C313.837 306.756 313.561 306.856 313.369 307.056C313.177 307.256 313.081 307.552 313.081 307.944V308.904L313.105 309.3V315H312.253ZM311.125 309.408V308.7H315.025V309.408H311.125ZM316.177 315V308.7H317.029V315H316.177ZM316.609 307.308C316.433 307.308 316.285 307.248 316.165 307.128C316.045 307.008 315.985 306.864 315.985 306.696C315.985 306.528 316.045 306.388 316.165 306.276C316.285 306.156 316.433 306.096 316.609 306.096C316.785 306.096 316.933 306.152 317.053 306.264C317.173 306.376 317.233 306.516 317.233 306.684C317.233 306.86 317.173 307.008 317.053 307.128C316.941 307.248 316.793 307.308 316.609 307.308ZM319.062 315V306.096H319.914V315H319.062ZM324.601 315.06C323.945 315.06 323.369 314.924 322.873 314.652C322.377 314.372 321.989 313.992 321.709 313.512C321.429 313.024 321.289 312.468 321.289 311.844C321.289 311.22 321.421 310.668 321.685 310.188C321.957 309.708 322.325 309.332 322.789 309.06C323.261 308.78 323.789 308.64 324.373 308.64C324.965 308.64 325.489 308.776 325.945 309.048C326.409 309.312 326.773 309.688 327.037 310.176C327.301 310.656 327.433 311.212 327.433 311.844C327.433 311.884 327.429 311.928 327.421 311.976C327.421 312.016 327.421 312.06 327.421 312.108H321.937V311.472H326.965L326.629 311.724C326.629 311.268 326.529 310.864 326.329 310.512C326.137 310.152 325.873 309.872 325.537 309.672C325.201 309.472 324.813 309.372 324.373 309.372C323.941 309.372 323.553 309.472 323.209 309.672C322.865 309.872 322.597 310.152 322.405 310.512C322.213 310.872 322.117 311.284 322.117 311.748V311.88C322.117 312.36 322.221 312.784 322.429 313.152C322.645 313.512 322.941 313.796 323.317 314.004C323.701 314.204 324.137 314.304 324.625 314.304C325.009 314.304 325.365 314.236 325.693 314.1C326.029 313.964 326.317 313.756 326.557 313.476L327.037 314.028C326.757 314.364 326.405 314.62 325.981 314.796C325.565 314.972 325.105 315.06 324.601 315.06Z" fill="black"/>
</svg>
